<svg width="58" height="58" viewBox="0 0 58 58" fill="none" xmlns="http://www.w3.org/2000/svg">
<rect width="58" height="58" rx="13" fill="#0088FF"/>
<g clip-path="url(#clip0_686_4989)">
<path d="M30.0709 32.1019V31.0311C28.4832 32.6188 26.1201 32.7295 24.4216 31.0311V32.1757L27.2278 34.5388L30.0709 32.1019ZM24.0524 35.4988L26.4524 34.8711L23.9047 32.7295L23.0186 33.0988L24.0524 35.4988ZM31.4001 33.0618L30.5509 32.7295L28.0401 34.8711L30.3662 35.4988L31.4001 33.0618ZM28.6678 35.8311L27.2647 35.4619L25.8247 35.8311L26.7478 36.9757C26.8216 37.0865 26.8586 37.2342 26.8216 37.3449L25.677 40.6311H28.8155L27.7078 37.3449C27.6709 37.2342 27.6709 37.0865 27.7816 36.9757L28.6678 35.8311ZM40.2247 21.3203H33.1355C33.1724 22.0588 33.0247 22.9449 32.7293 23.9788C33.837 24.6065 32.7293 27.8926 31.6586 28.1142C31.5478 28.5203 31.2893 29.2957 30.8093 30.0711V32.028L35.6832 33.9111C37.0124 34.428 37.8986 35.7203 37.8986 37.1234V37.9726H40.2247C40.4462 37.9726 40.6309 37.788 40.6309 37.5665V21.6895C40.6309 21.5049 40.4462 21.3203 40.2247 21.3203ZM35.6093 30.108H34.8339C34.6124 30.108 34.4278 29.9234 34.4278 29.7019C34.4278 29.4803 34.6124 29.2957 34.8339 29.2957H35.6093C35.8309 29.2957 36.0155 29.4803 36.0155 29.7019C35.9786 29.9234 35.7939 30.108 35.6093 30.108ZM35.6093 27.0065H34.8339C34.6124 27.0065 34.4278 26.8219 34.4278 26.6003C34.4278 26.3788 34.6124 26.1942 34.8339 26.1942H35.6093C35.8309 26.1942 36.0155 26.3788 36.0155 26.6003C35.9786 26.8219 35.7939 27.0065 35.6093 27.0065ZM35.6093 23.9049H34.8339C34.6124 23.9049 34.4278 23.7203 34.4278 23.4988C34.4278 23.2772 34.6124 23.0926 34.8339 23.0926H35.6093C35.8309 23.0926 36.0155 23.2772 36.0155 23.4988C35.9786 23.7203 35.7939 23.9049 35.6093 23.9049ZM39.0801 33.1357H37.5293C37.3078 33.1357 37.1232 32.9511 37.1232 32.7295C37.1232 32.508 37.3078 32.3234 37.5293 32.3234H39.0801C39.3016 32.3234 39.4862 32.508 39.4862 32.7295C39.4862 32.9511 39.3016 33.1357 39.0801 33.1357ZM39.0801 30.108H37.5293C37.3078 30.108 37.1232 29.9234 37.1232 29.7019C37.1232 29.4803 37.3078 29.2957 37.5293 29.2957H39.0801C39.3016 29.2957 39.4862 29.4803 39.4862 29.7019C39.4862 29.9234 39.3016 30.108 39.0801 30.108ZM39.0801 27.0065H37.5293C37.3078 27.0065 37.1232 26.8219 37.1232 26.6003C37.1232 26.3788 37.3078 26.1942 37.5293 26.1942H39.0801C39.3016 26.1942 39.4862 26.3788 39.4862 26.6003C39.4862 26.8219 39.3016 27.0065 39.0801 27.0065ZM39.0801 23.9049H37.5293C37.3078 23.9049 37.1232 23.7203 37.1232 23.4988C37.1232 23.2772 37.3078 23.0926 37.5293 23.0926H39.0801C39.3016 23.0926 39.4862 23.2772 39.4862 23.4988C39.4862 23.7203 39.3016 23.9049 39.0801 23.9049Z" fill="white"/>
<path d="M25.0122 36.0522L23.9045 36.3476C23.7199 36.3845 23.5353 36.3107 23.4614 36.1261L22.3168 33.3568L19.1045 34.6122C18.0707 34.9814 17.3691 35.9784 17.3691 37.0861V40.6307H24.8645L26.0091 37.3076L25.0122 36.0522ZM22.0953 24.6799C21.9107 24.9384 22.5384 27.3384 23.0184 27.3384C23.2399 27.2645 23.4984 27.4491 23.5353 27.6338C23.5722 27.7814 24.2738 31.3999 27.2645 31.5107C30.2922 31.3999 30.9938 27.8184 30.9938 27.6338C31.0307 27.4122 31.2522 27.2645 31.4738 27.3384C31.9538 27.3384 32.6184 24.9753 32.4338 24.6799C32.3968 24.6061 32.2861 24.6061 32.2861 24.6061C32.0276 24.6061 31.843 24.3476 31.9168 24.0891C32.6922 21.6522 32.3968 20.5076 31.9907 19.9538C31.5476 19.363 30.883 19.3261 30.8461 19.3261C30.6984 19.3261 30.5507 19.2153 30.4768 19.0676C29.9599 17.7384 28.483 17.3691 27.0061 17.3691C23.5722 17.3691 21.5414 19.5476 22.6122 24.1261C22.6491 24.2368 22.6122 24.3476 22.5384 24.4584C22.3907 24.643 22.2061 24.5322 22.0953 24.6799ZM37.123 40.6307V37.0861C37.123 35.9784 36.4214 34.9814 35.4245 34.6122L32.1014 33.3199L30.9199 36.1261C30.8461 36.3107 30.6614 36.4214 30.4768 36.3476L29.4799 36.0522L28.5199 37.3076L29.6645 40.6307H37.123Z" fill="white"/>
</g>
<defs>
<clipPath id="clip0_686_4989">
<rect width="24" height="24" fill="white" transform="translate(17 17)"/>
</clipPath>
</defs>
</svg>
