<svg width="65" height="48" viewBox="0 0 65 48" fill="none" xmlns="http://www.w3.org/2000/svg">
<path d="M58.3629 26.6024C58.3665 26.6594 58.3665 26.7164 58.3665 26.7751C58.3665 26.9531 58.3523 27.1276 58.3238 27.2967V27.3127C58.3238 27.3181 58.3238 27.3252 58.3202 27.3305C58.3113 27.3857 58.2988 27.4427 58.2864 27.4961C58.0922 28.2776 57.5275 28.9274 56.7937 29.2835L55.13 30.0917L50.6021 32.2868V32.2904L39.7651 37.5457L30.5045 31.4145C29.0456 30.4478 28.6466 28.4806 29.6139 27.0226C30.5811 25.561 32.5493 25.1622 34.0082 26.1289L40.2514 30.2609L53.4485 23.8608C53.4539 23.8572 53.4574 23.8555 53.461 23.8555L53.7513 23.713C53.7602 23.7095 53.7656 23.7077 53.7727 23.7041C54.1646 23.5439 54.5939 23.4531 55.0445 23.4531C56.7972 23.4531 58.2347 24.8115 58.3576 26.533C58.3612 26.533 58.363 26.5365 58.3665 26.5365C58.3665 26.5561 58.3629 26.5811 58.3629 26.6024Z" fill="#9BE3BF"/>
<path d="M37.2608 23.8932C39.1791 23.8932 40.7342 22.339 40.7342 20.4217C40.7342 18.5044 39.1791 16.9502 37.2608 16.9502C35.3425 16.9502 33.7874 18.5044 33.7874 20.4217C33.7874 22.339 35.3425 23.8932 37.2608 23.8932Z" fill="#2DBEFF"/>
<path d="M51.5441 20.4198C51.5441 20.7224 51.505 21.0144 51.4319 21.2921C51.0454 22.7857 49.6828 23.8913 48.0707 23.8913C46.1559 23.8913 44.5973 22.3335 44.5973 20.4198C44.5973 18.506 46.1559 16.9482 48.0707 16.9482C48.6657 16.9482 49.225 17.0996 49.713 17.3613C50.8014 17.947 51.5441 19.1006 51.5441 20.4198Z" fill="#2DBEFF"/>
<path d="M64.3316 19.0488C63.7509 20.0939 62.6697 20.6813 61.5564 20.6813C61.0345 20.6813 60.5091 20.5514 60.0192 20.2826L58.0225 19.1752L46.4908 12.7752L36.5319 7.25102L26.5766 12.7716L26.573 12.7752L15.0395 19.1735L14.6103 19.412L13.0392 20.2843C11.5109 21.1335 9.57828 20.5799 8.72863 19.0488C7.8772 17.5178 8.42939 15.5898 9.96125 14.7406L23.308 7.3347L36.5319 0L49.7949 7.35962L63.0972 14.7406C64.6273 15.5898 65.1795 17.5178 64.3316 19.0488Z" fill="#2DBEFF"/>
<path d="M58.3202 27.3289C58.1866 29.1982 57.8161 31.0034 57.2444 32.7142C54.2911 41.5835 45.905 47.9978 36.053 47.9978H3.26055C2.17578 47.9978 1.12842 47.4904 0.529923 46.5843C-0.289444 45.3398 -0.138039 43.734 0.841639 42.6783L13.9052 28.5288C13.7841 27.5835 13.7235 26.6293 13.7235 25.6786C13.7235 23.5832 14.0103 21.5341 14.5625 19.5776C14.5767 19.5206 14.5963 19.4637 14.6106 19.4085L15.0398 19.1699L26.5715 12.7734C26.4771 12.8696 26.3756 12.9604 26.267 13.0458C26.21 13.0903 26.153 13.1366 26.0942 13.1811C22.2574 16.2325 20.0647 20.774 20.0647 25.6786C20.0647 26.7592 20.1734 27.847 20.3907 28.908C20.5937 29.9067 20.3034 30.9428 19.6105 31.6905L10.4104 41.6565H36.0513C42.339 41.6565 47.7949 38.0034 50.4009 32.7124C50.4703 32.57 50.5362 32.4311 50.6004 32.2869V32.2834L55.1283 30.0883L56.7919 29.2801C57.5258 28.924 58.0905 28.2742 58.2846 27.4927C58.3006 27.441 58.3113 27.3841 58.3202 27.3289Z" fill="#2DBEFF"/>
</svg>
