<svg width="26" height="26" viewBox="0 0 26 26" fill="none" xmlns="http://www.w3.org/2000/svg">
<path fill-rule="evenodd" clip-rule="evenodd" d="M13.0053 1.63184C15.9865 1.68571 18.8275 2.90783 20.9167 5.03519C23.006 7.16255 24.1766 10.0251 24.1766 13.0068C24.1766 15.9886 23.006 18.8511 20.9167 20.9785C18.8275 23.1058 15.9865 24.328 13.0053 24.3818C10.024 24.328 7.18311 23.1058 5.09384 20.9785C3.00457 18.8511 1.83398 15.9886 1.83398 13.0068C1.83398 10.0251 3.00457 7.16255 5.09384 5.03519C7.18311 2.90783 10.024 1.68571 13.0053 1.63184ZM10.643 16.7019L7.85729 13.9137C7.62926 13.6849 7.50122 13.3751 7.50122 13.052C7.50122 12.729 7.62926 12.4191 7.85729 12.1903C8.08647 11.9625 8.39648 11.8347 8.71962 11.8347C9.04276 11.8347 9.35277 11.9625 9.58195 12.1903L11.5443 14.1552L16.4286 9.27088C16.6574 9.04286 16.9673 8.91482 17.2903 8.91482C17.6134 8.91482 17.9232 9.04286 18.152 9.27088C18.3798 9.49986 18.5076 9.80966 18.5076 10.1326C18.5076 10.4555 18.3798 10.7653 18.152 10.9943L12.4048 16.7416C12.2881 16.8576 12.1492 16.9489 11.9964 17.01C11.8436 17.0711 11.68 17.1006 11.5155 17.0969C11.3509 17.0932 11.1888 17.0564 11.0389 16.9885C10.889 16.9206 10.7543 16.8231 10.643 16.7019Z" fill="#A5D4A9"/>
</svg>
