<svg width="109" height="29" viewBox="0 0 109 29" fill="none" xmlns="http://www.w3.org/2000/svg">
<g clip-path="url(#clip0_1517_1852)">
<path d="M48.5218 25.7073C44.3704 25.7073 41.3569 22.587 41.3569 18.2868C41.3569 13.9877 44.3704 10.8674 48.5218 10.8674C51.0637 10.8674 53.2948 12.0936 54.4902 14.148C54.8776 14.6589 54.999 15.1203 54.835 15.4548C54.6881 15.756 54.3198 15.9281 53.8249 15.9281C53.1724 15.9281 52.6242 15.6818 52.0994 15.1515C51.4394 13.9533 50.1642 13.2283 48.6995 13.2283C46.148 13.2283 44.3672 15.3085 44.3672 18.2858C44.3672 21.3114 46.0363 23.3443 48.5218 23.3443C50.2824 23.3443 51.6779 22.3601 52.2559 20.7123L52.2931 20.6069H48.344C47.8246 20.6069 47.4328 20.1594 47.4328 19.5657C47.4328 18.9494 47.8246 18.4847 48.344 18.4847H53.7269C54.3475 18.4847 54.8776 18.7181 55.1789 19.1247C55.4375 19.4732 55.5067 19.9207 55.3737 20.3832C54.5966 23.6691 51.9717 25.7073 48.5218 25.7073Z" fill="#2DBEFF"/>
<path d="M66.907 21.5446C66.527 21.5446 66.0906 21.7393 65.8074 22.0222C65.2507 23.044 64.1277 23.7033 62.9483 23.7033C61.2175 23.7033 60.0051 22.5213 59.8625 20.6906L59.855 20.6067H65.9565C66.6526 20.6067 67.2455 20.3443 67.5808 19.8893C67.8491 19.5215 67.9182 19.0697 67.7809 18.6018C67.2349 16.0538 65.1688 14.4038 62.5119 14.4038C59.3483 14.4038 57.0502 16.7862 57.0502 20.0646C57.0502 23.3323 59.3973 25.7039 62.6311 25.7039C65.2624 25.7039 67.1827 24.2325 67.7266 22.773C67.8491 22.4869 67.831 22.1717 67.6745 21.9297C67.5159 21.6866 67.2349 21.5446 66.907 21.5446ZM59.9018 19.0181C60.0807 17.3025 61.1313 16.1495 62.5119 16.1495C63.9074 16.1495 64.9633 17.3025 65.1421 19.0181L65.1528 19.1052H59.8933L59.9018 19.0181Z" fill="#2DBEFF"/>
<path d="M84.1227 25.7071C81.5882 25.7071 79.7478 23.756 79.7478 21.067V16.4883H74.1094C72.9033 16.4883 71.9932 17.1325 71.9932 17.9876C71.9932 18.9535 73.2003 19.1686 74.5969 19.4182C76.4927 19.757 78.6418 20.141 78.6418 22.4266C78.6418 24.3271 76.6609 25.7071 73.9305 25.7071C71.3397 25.7071 69.2001 24.2529 69.1597 22.4642C69.1597 21.9318 69.5929 21.6253 70.3487 21.6253C70.9086 21.6253 71.2971 21.8027 71.5015 22.1545C71.6739 23.1354 72.6106 23.8453 73.7326 23.8453C74.8971 23.8453 75.8093 23.187 75.8093 22.347C75.8093 21.3703 74.598 21.1509 73.195 20.8982C71.3035 20.5561 69.1607 20.1689 69.1607 17.8887C69.1607 15.9881 71.2417 14.6081 74.1094 14.6081H79.7478V12.23C79.7478 11.4287 80.3098 10.8694 81.1145 10.8694C81.8948 10.8694 82.4611 11.4588 82.4611 12.2698V14.6081H85.0126C85.5576 14.6081 85.9237 14.9943 85.9237 15.5686C85.9237 16.1279 85.5661 16.4893 85.0126 16.4893H82.4611V20.7271C82.4611 22.1512 83.5585 23.2257 85.0126 23.2257C85.8184 23.2257 86.3591 23.7162 86.3591 24.4465C86.3591 25.2123 85.8301 25.7071 85.0126 25.7071H84.1227Z" fill="#2DBEFF"/>
<path d="M89.1883 25.7073C88.3825 25.7073 87.8418 25.1609 87.8418 24.3467V12.2281C87.8418 11.4009 88.3783 10.8674 89.2086 10.8674C90.0143 10.8674 90.5551 11.4138 90.5551 12.2281V24.3456C90.5551 25.1598 90.0058 25.7073 89.1883 25.7073Z" fill="#9BE3BF"/>
<path d="M94.2939 10.2463C93.3061 10.2463 92.5908 10.9035 92.5908 11.807C92.5908 12.7127 93.3061 13.3677 94.2939 13.3677C95.2456 13.3677 95.9364 12.7137 95.9364 11.807C95.9364 10.9035 95.2445 10.2463 94.2939 10.2463ZM94.2727 14.4046C93.4435 14.4046 92.908 14.9402 92.908 15.7652V24.3441C92.908 25.1583 93.4488 25.7047 94.2546 25.7047C95.071 25.7047 95.6224 25.1583 95.6224 24.3441V15.7652C95.6224 14.9542 95.0785 14.4046 94.2727 14.4046Z" fill="#9BE3BF"/>
<path d="M103.278 14.4038C99.9741 14.4038 97.5769 16.7862 97.5769 20.0646C97.5769 23.3323 99.9741 25.7039 103.278 25.7039C106.593 25.7039 109 23.3323 109 20.0646C109 16.7873 106.592 14.4038 103.278 14.4038ZM103.278 23.5818C101.526 23.5818 100.351 22.1685 100.351 20.0646C100.351 17.9479 101.526 16.5259 103.278 16.5259C105.041 16.5259 106.226 17.9468 106.226 20.0646C106.226 22.1685 105.041 23.5818 103.278 23.5818Z" fill="#9BE3BF"/>
<path d="M34.8773 16.0724C34.8794 16.1068 34.8794 16.1412 34.8794 16.1767C34.8794 16.2843 34.8709 16.3897 34.8539 16.4919V16.5016C34.8539 16.5048 34.8539 16.5091 34.8517 16.5123C34.8464 16.5457 34.839 16.5801 34.8315 16.6123C34.7155 17.0845 34.3781 17.4771 33.9395 17.6922L32.9453 18.1805L30.2395 19.5067V19.5089L23.7633 22.684L18.2292 18.9797C17.3575 18.3957 17.119 17.2071 17.697 16.3262C18.275 15.4432 19.4512 15.2022 20.323 15.7863L24.0539 18.2827L31.9405 14.416C31.9436 14.4138 31.9458 14.4128 31.9479 14.4128L32.1214 14.3267C32.1267 14.3246 32.1299 14.3235 32.1342 14.3213C32.3684 14.2245 32.6249 14.1697 32.8942 14.1697C33.9416 14.1697 34.8006 14.9903 34.8741 16.0304C34.8762 16.0304 34.8773 16.0326 34.8794 16.0326C34.8794 16.0444 34.8773 16.0595 34.8773 16.0724Z" fill="#9BE3BF"/>
<path d="M22.2667 14.4348C23.4131 14.4348 24.3424 13.4957 24.3424 12.3374C24.3424 11.179 23.4131 10.24 22.2667 10.24C21.1204 10.24 20.191 11.179 20.191 12.3374C20.191 13.4957 21.1204 14.4348 22.2667 14.4348Z" fill="#2DBEFF"/>
<path d="M30.802 12.3362C30.802 12.519 30.7786 12.6954 30.7349 12.8632C30.504 13.7656 29.6896 14.4336 28.7263 14.4336C27.582 14.4336 26.6506 13.4924 26.6506 12.3362C26.6506 11.1799 27.582 10.2388 28.7263 10.2388C29.0818 10.2388 29.4161 10.3302 29.7077 10.4883C30.3581 10.8422 30.802 11.5392 30.802 12.3362Z" fill="#2DBEFF"/>
<path d="M38.4439 11.5088C38.0969 12.1402 37.4507 12.4951 36.7854 12.4951C36.4736 12.4951 36.1596 12.4166 35.8668 12.2542L34.6736 11.5852L27.7823 7.71842L21.8309 4.38087L15.8817 7.71627L15.8796 7.71842L8.98725 11.5841L8.73072 11.7282L7.79187 12.2553C6.87857 12.7683 5.72364 12.4338 5.21589 11.5088C4.70708 10.5838 5.03706 9.41893 5.95249 8.90587L13.9284 4.43142L21.8309 0L29.7569 4.44648L37.7062 8.90587C38.6206 9.41893 38.9505 10.5838 38.4439 11.5088Z" fill="#2DBEFF"/>
<path d="M34.8511 16.5123C34.7712 17.6416 34.5498 18.7323 34.2081 19.7659C32.4433 25.1245 27.4318 28.9999 21.5443 28.9999H1.94775C1.2995 28.9999 0.673602 28.6933 0.315946 28.1458C-0.173702 27.394 -0.0832237 26.4238 0.502225 25.786L8.30892 17.2372C8.23654 16.6661 8.20035 16.0896 8.20035 15.5152C8.20035 14.2492 8.37173 13.0112 8.70171 11.8292C8.71022 11.7947 8.72193 11.7603 8.73045 11.727L8.98698 11.5829L15.8783 7.71826C15.8218 7.77634 15.7612 7.8312 15.6962 7.88283C15.6622 7.90972 15.6281 7.93768 15.593 7.96457C13.3001 9.80813 11.9898 12.552 11.9898 15.5152C11.9898 16.1681 12.0547 16.8253 12.1846 17.4663C12.3059 18.0697 12.1324 18.6957 11.7184 19.1475L6.22047 25.1686H21.5433C25.3008 25.1686 28.5612 22.9615 30.1185 19.7649C30.16 19.6788 30.1994 19.5949 30.2377 19.5078V19.5056L32.9436 18.1794L33.9378 17.6911C34.3763 17.476 34.7137 17.0834 34.8298 16.6112C34.8394 16.58 34.8457 16.5456 34.8511 16.5123Z" fill="#2DBEFF"/>
</g>
<defs>
<clipPath id="clip0_1517_1852">
<rect width="109" height="29" fill="white"/>
</clipPath>
</defs>
</svg>
